<?xml version="1.0" encoding="UTF-8" standalone="no"?>
<!DOCTYPE svg PUBLIC "-//W3C//DTD SVG 1.1//EN" "http://www.w3.org/Graphics/SVG/1.1/DTD/svg11.dtd">
<svg width="100%" height="100%" viewBox="0 0 15 15" version="1.1" xmlns="http://www.w3.org/2000/svg" xmlns:xlink="http://www.w3.org/1999/xlink" xml:space="preserve" xmlns:serif="http://www.serif.com/" style="fill-rule:evenodd;clip-rule:evenodd;stroke-linejoin:round;stroke-miterlimit:2;">
    <path id="stroke" d="M10,14L5,14L5,15L10,15L10,14ZM12,13L10,13L10,14L12,14L12,13ZM5,13L3,13L3,14L5,14L5,13ZM13,12L12,12L12,13L13,13L13,12ZM3,12L2,12L2,13L3,13L3,12ZM14,10L13,10L13,12L14,12L14,10ZM2,10L1,10L1,12L2,12L2,10ZM15,5L14,5L14,10L15,10L15,5ZM1,5L0,5L0,10L1,10L1,5ZM14,3L13,3L13,5L14,5L14,3ZM2,3L1,3L1,5L2,5L2,3ZM13,2L12,2L12,3L13,3L13,2ZM3,2L2,2L2,3L3,3L3,2ZM5,2L5,1L3,1L3,2L5,2ZM12,1L10,1L10,2L12,2L12,1ZM10,0L5,0L5,1L10,1L10,0Z"/>
    <path id="fill" d="M10,2L10,1L5,1L5,2L3,2L3,3L2,3L2,5L1,5L1,10L2,10L2,12L3,12L3,13L5,13L5,14L10,14L10,13L12,13L12,12L13,12L13,10L14,10L14,5L13,5L13,3L12,3L12,2L10,2Z" style="fill:rgb(192,192,192);"/>
    <path id="shadow" d="M5,11L5,13L6,13L6,12L7,12L7,11L8,11L8,10L9,10L9,9L7,9L7,10L6,10L6,11L5,11ZM9,5L8,5L8,8L9,8L9,5ZM11,6L11,8L12,8L12,6L11,6ZM13,5L12,5L12,6L13,6L13,5ZM9,3L8,3L8,4L9,4L9,3ZM9,12L8,12L8,13L10,13L10,12L11,12L11,11L12,11L12,10L10,10L10,11L9,11L9,12Z" style="fill-opacity:0.17;"/>
    <path id="icon" d="M6,5L5,5L5,6L6,6L6,5ZM4,7L5,7L5,8L6,8L6,9L5,9L5,10L4,10L4,12L5,12L5,11L6,11L6,10L7,10L7,9L9,9L9,10L8,10L8,11L7,11L7,12L9,12L9,11L10,11L10,10L11,10L11,9L10,9L10,8L8,8L8,5L9,5L9,6L10,6L10,7L11,7L11,6L12,6L12,4L11,4L11,5L10,5L10,4L8,4L8,2L6,2L6,4L4,4L4,5L3,5L3,6L4,6L4,7Z"/>
</svg>
